<svg xmlns="http://www.w3.org/2000/svg" width="89.644" height="84.539" viewBox="0 0 89.644 84.539">
  <g id="shopping-cart_5_" data-name="shopping-cart (5)" transform="translate(0.003 -0.379)">
    <path id="Trazado_47" data-name="Trazado 47" d="M106.63,322.332a10.677,10.677,0,1,0,10.676,10.677A10.677,10.677,0,0,0,106.63,322.332Zm0,17.428a6.751,6.751,0,1,1,6.751-6.751A6.752,6.752,0,0,1,106.63,339.76Zm0,0" transform="translate(-77.124 -258.767)" fill="#fff"/>
    <path id="Trazado_48" data-name="Trazado 48" d="M87.7,18.76H18.4L16.985,10.85A11.8,11.8,0,0,0,7.427,1.312L2.3.409a1.963,1.963,0,1,0-.687,3.866l5.142.9a7.849,7.849,0,0,1,6.359,6.359L20.066,50.73a9.793,9.793,0,0,0,9.656,8.106H70.936a9.787,9.787,0,0,0,9.4-6.967l9.224-30.577a2.052,2.052,0,0,0-.294-1.746A1.988,1.988,0,0,0,87.7,18.76ZM76.588,50.71a5.847,5.847,0,0,1-5.632,4.18H29.741a5.858,5.858,0,0,1-5.79-4.867L19.1,22.665H85.066Zm0,0" transform="translate(0 0)" fill="#fff"/>
    <path id="Trazado_49" data-name="Trazado 49" d="M316.63,322.332a10.677,10.677,0,1,0,10.676,10.677A10.677,10.677,0,0,0,316.63,322.332Zm0,17.428a6.751,6.751,0,1,1,6.751-6.751A6.752,6.752,0,0,1,316.63,339.76Zm0,0" transform="translate(-245.91 -258.767)" fill="#fff"/>
  </g>
</svg>
