<svg id="Icon_ionic-ios-information-circle-outline" data-name="Icon ionic-ios-information-circle-outline" xmlns="http://www.w3.org/2000/svg" width="140.516" height="140.516" viewBox="0 0 140.516 140.516">
  <path id="Trazado_39" data-name="Trazado 39" d="M16.552,17.43a6.763,6.763,0,0,1,6.924-6.722,6.743,6.743,0,1,1,0,13.477A6.791,6.791,0,0,1,16.552,17.43Zm.473,12.059h12.9V78.163h-12.9Z" transform="translate(46.748 24.522)" fill="#5a4837"/>
  <path id="Trazado_40" data-name="Trazado 40" d="M73.633,12.833a60.81,60.81,0,0,1,43,103.8,60.81,60.81,0,0,1-86-86,60.4,60.4,0,0,1,43-17.8m0-9.458a70.258,70.258,0,1,0,70.258,70.258A70.247,70.247,0,0,0,73.633,3.375Z" transform="translate(-3.375 -3.375)" fill="#5a4837"/>
</svg>
